<svg width="48" height="48" viewBox="0 0 48 48" xmlns="http://www.w3.org/2000/svg" role="img" aria-label="GitHub">
  <rect width="48" height="48" rx="12" fill="#0f1116"/>
  <path d="M24 11a13 13 0 0 0-4.1 25.3c.65.12.9-.28.9-.63 0-.31-.01-1.12-.02-2.2-3.3.72-4-1.6-4-1.6-.6-1.5-1.5-1.9-1.5-1.9-1.2-.8.1-.8.1-.8 1.3.1 2 1.4 2 1.4 1.1 2 3 1.5 3.7 1.2.1-.8.4-1.5.7-1.9-2.6-.3-5.2-1.3-5.2-5.8a4.6 4.6 0 0 1 1.2-3.2 4.3 4.3 0 0 1 .1-3.2s1-.3 3.3 1.2a11.3 11.3 0 0 1 6 0c2.3-1.5 3.3-1.2 3.3-1.2a4.3 4.3 0 0 1 .1 3.2 4.6 4.6 0 0 1 1.2 3.2c0 4.5-2.6 5.5-5.2 5.8.4.3.8 1 .8 2v3c0 .35.24.76.9.63A13 13 0 0 0 24 11Z" fill="#f5f5f5"/>
</svg>
